<svg xmlns="http://www.w3.org/2000/svg" data-name="Capa 4" viewBox="0 0 1366 960" x="0px" y="0px"><title>penguin</title><path d="M876.51,429.27V382.54c0-98.37-74.31-180.23-169.57-192.21,11-19.62,31.8-59.35,28-73.83-5.16-19.55-22.31-18.5-56.61-16.41-31.62,1.93-2.54,77,2.2,88.76-4.18,0-8.34.22-12.46.53-.5-15.23-2.26-37.62-8.15-43.51-9.15-9.15-18.31-3.05-36.61,9.15-12,8,4.81,26.48,17.86,38.34-86.72,19.18-152.1,96.91-152.1,189.18v46.71L426.5,418.31s20.87,61.26,47.12,68.73c6.45,1.84,11.49,3.18,15.44,4.18v33.19c0,52,31.45,97.09,76.27,117.1v10.64a6.52,6.52,0,0,0,6.5,6.5h51.07a6.52,6.52,0,0,0,6.48-6.1h85.44v21a6.52,6.52,0,0,0,6.5,6.5h51.07a6.52,6.52,0,0,0,6.5-6.5V648.84c55.87-13.78,97.63-64.46,97.63-124.43V491.25c4-1,9.05-2.35,15.58-4.21,26.25-7.47,47.12-68.73,47.12-68.73ZM742.18,441.69l-46.82,24.92-47-24.58ZM605,295.59a70.17,70.17,0,1,1-70.17,70.17A70.17,70.17,0,0,1,605,295.59ZM849.05,558a76.5,76.5,0,0,1-76.27,76.27H629.39v-8.75a6.52,6.52,0,0,0-6.5-6.5H571.82a6.52,6.52,0,0,0-6.5,6.5v4.7A76.55,76.55,0,0,1,513.46,558v-3.05a76.5,76.5,0,0,1,76.27-76.27H772.78a76.5,76.5,0,0,1,76.27,76.27ZM800.24,429.83A48.81,48.81,0,1,1,849.05,381,48.81,48.81,0,0,1,800.24,429.83Z"/><circle cx="579.05" cy="373.39" r="32.03"/><circle cx="815.49" cy="377.96" r="21.36"/><polygon points="707.42 492.35 684.31 505.83 661.19 492.35 661.08 519.78 684.31 506.5 707.53 519.78 707.42 492.35"/><text x="0" y="783" fill="#FFF" font-size="5px" font-weight="bold" font-family="'Helvetica Neue', Helvetica, Arial-Unicode, Arial, Sans-serif">Created by Ruth</text><text x="0" y="788" fill="#FFF" font-size="5px" font-weight="bold" font-family="'Helvetica Neue', Helvetica, Arial-Unicode, Arial, Sans-serif">from the Noun Project</text></svg>